<svg xmlns="http://www.w3.org/2000/svg" width="12" height="12" viewBox="0 0 12 12" fill="none">
                <path
                  d="M2.63717 2.76426C1.89344 3.53617 1.43812 4.54059 1.34775 5.60869C1.25737 6.67678 1.53745 7.74342 2.1409 8.62933C2.74435 9.51524 3.63438 10.1664 4.6614 10.4734C5.68841 10.7803 6.78979 10.7244 7.78042 10.3149C7.8475 9.87742 7.7005 9.45742 7.64042 9.31042C7.50625 8.98376 7.06408 8.42551 6.32617 7.65142C6.129 7.44434 6.14183 7.28509 6.21242 6.81317L6.22 6.76009C6.26783 6.43692 6.34833 6.24559 7.43625 6.07292C7.98925 5.98542 8.1345 6.20592 8.33575 6.51217L8.40342 6.61251C8.59475 6.89251 8.7365 6.95667 8.95058 7.05351C9.04683 7.09726 9.16642 7.15267 9.32683 7.24309C9.70716 7.46067 9.70716 7.70626 9.70716 8.24409V8.30534C9.70716 8.53342 9.685 8.73409 9.65 8.90851C10.0976 8.34671 10.4096 7.68918 10.5615 6.98712C10.7135 6.28505 10.7013 5.55739 10.5261 4.86077C10.3508 4.16416 10.0171 3.5174 9.55101 2.97084C9.0849 2.42427 8.49895 1.99266 7.83875 1.70959C7.51617 1.92717 7.07342 2.23576 6.91883 2.44751C6.84008 2.55542 6.72808 3.10784 6.36467 3.15334C6.27016 3.16501 6.14242 3.15684 6.00708 3.14809C5.64425 3.12476 5.14842 3.09267 4.98975 3.52376C4.88883 3.79676 4.87133 4.53876 5.19741 4.92376C5.24991 4.98501 5.25983 5.09876 5.22425 5.22651C5.17758 5.39392 5.08367 5.49601 5.05392 5.51701C4.99792 5.48434 4.88591 5.35426 4.8095 5.26617C4.62691 5.05326 4.39825 4.78784 4.10308 4.70617C3.99575 4.67642 3.87791 4.65192 3.763 4.62742C3.44275 4.56034 3.0805 4.48392 2.99591 4.30426C2.93408 4.17242 2.93466 3.99101 2.93466 3.79967C2.93466 3.55642 2.93466 3.28167 2.81566 3.01509C2.7743 2.91995 2.7135 2.83451 2.63717 2.76426ZM6.00008 11.8333C2.77833 11.8333 0.166748 9.22176 0.166748 6.00001C0.166748 2.77826 2.77833 0.166672 6.00008 0.166672C9.22183 0.166672 11.8334 2.77826 11.8334 6.00001C11.8334 9.22176 9.22183 11.8333 6.00008 11.8333Z"
                  fill="#939393" />
              </svg>