<svg width="224" height="90" viewBox="0 0 224 90" fill="none" xmlns="http://www.w3.org/2000/svg">
<path d="M0 0H224V90H0V0Z" fill="#B11E23"/>
<path d="M10 55.8323H18.4128L21.4459 44.4533H21.5032L22.3044 55.8323H27.3978L34.1509 44.8035H34.2081L31.318 55.8323H39.8739L45.4251 35H33.4642L27.4264 46.2039H27.3692V35H15.2651L10 55.8323Z" fill="white"/>
<path d="M59.1005 45.0369C57.6387 45.2897 56.1961 45.6399 54.7151 45.6399C52.6379 45.6399 51.7146 45.2314 51.7146 43.8503C51.7146 42.6638 52.2147 41.7107 52.7148 41.2244C53.7342 40.2518 55.2921 40.1157 57.004 40.1157C58.1195 40.1157 59.1389 40.2129 60.3314 40.388L61.5432 35.7975C59.2159 35.3112 56.8693 35 54.5036 35C52.3301 35 49.8489 35.2918 48.2718 36.9646C46.5022 38.8903 45.4251 43.6558 45.4251 45.6788C45.4251 48.8882 47.3101 49.7052 51.4454 49.7052C52.734 49.7052 55.4653 49.5885 58.0618 49.0049L59.1005 45.0369Z" fill="white"/>
<path d="M60.1229 49.2967H71.4132C73.3751 49.2967 75.837 48.3047 76.8756 45.4453C77.8373 42.8583 78.3374 41.1077 78.3374 39.3571C78.3374 36.1476 76.3563 35.4085 74.2598 35.4085H63.8735L60.1229 49.2967ZM68.5473 39.999H70.4707C71.644 39.999 72.0479 40.388 72.0479 41.3217C72.0479 41.6523 71.9517 42.1775 71.6632 43.3446C71.3747 44.5506 70.5669 45.601 69.2205 45.601H67.0279L68.5473 39.999Z" fill="white"/>
<path d="M76.8588 49.2967H83.4368L84.6293 47.2738H89.4763V49.2967H95.4003V35.4085H85.1102L76.8588 49.2967ZM89.4763 43.9281H86.3988L89.4378 38.9292H89.4763V43.9281Z" fill="white"/>
<path d="M96.6722 49.2967H102.462L106.193 35.4085H100.307L96.6722 49.2967Z" fill="white"/>
<path d="M105.39 49.2967H116.681C118.642 49.2967 121.104 48.3047 122.143 45.4453C123.105 42.8583 123.605 41.1077 123.605 39.3571C123.605 36.1476 121.624 35.4085 119.527 35.4085H109.141L105.39 49.2967ZM113.815 39.999H115.738C116.911 39.999 117.315 40.388 117.315 41.3217C117.315 41.6523 117.219 42.1775 116.931 43.3446C116.642 44.5506 115.834 45.601 114.488 45.601H112.295L113.815 39.999Z" fill="white"/>
<path d="M141.377 42.5666H135.567L134.573 46.1845C133.196 46.2039 132.126 46.1456 132.126 44.4144C132.126 42.6249 132.91 40.3297 134.668 39.8434C135.681 39.5905 136.885 39.5905 137.956 39.5905C139.313 39.5905 140.689 39.785 142.008 39.9406L143.117 35.8559C140.746 35.3112 138.319 35 135.872 35C134.401 35 132.757 35.0778 131.056 35.6224C126.793 36.9451 126.048 43.8892 126.048 45.4064C126.048 49.6274 129.488 49.7052 132.986 49.7052C134.573 49.7052 137.65 49.4523 139.638 48.966L141.377 42.5666Z" fill="white"/>
<path d="M149.943 39.2987H152.485C153.288 39.2987 153.747 39.61 153.747 40.2713C153.747 41.1661 153.174 42.1775 151.836 42.1775H149.217L149.943 39.2987ZM141.476 49.2967H147.306L148.529 44.4728L151.358 49.2967H158.181L154.225 43.5975H155.257C157.723 43.5975 159.634 42.0025 159.634 38.5012C159.634 36.5367 159.08 35.4085 156.48 35.4085H145.203L141.476 49.2967Z" fill="white"/>
<path d="M169.742 39.5905C171.061 39.5905 171.596 40.2129 171.596 41.2244C171.596 42.8 170.87 44.2977 170.659 44.6867C170.086 45.7566 169.513 46.0094 168.117 46.0094C167.334 46.0094 166.378 45.6788 166.378 44.2394C166.378 43.5391 166.818 41.9636 167.334 40.9715C168.022 39.6489 168.805 39.5905 169.742 39.5905ZM160.3 45.2314C160.3 49.569 163.473 49.7052 167.716 49.7052C170.449 49.7052 174.043 49.5301 175.533 47.1182C177.024 44.7645 177.846 41.4773 177.846 39.4738C177.846 35.1362 173.89 35 170.43 35C166.951 35 164.103 35.3501 162.46 38.0149C161.103 40.2324 160.3 43.2279 160.3 45.2314Z" fill="white"/>
<path d="M196.007 35.4085H190.139L187.597 44.6089C187.329 45.5621 186.889 46.1845 185.819 46.1845C185.093 46.1845 184.596 45.8927 184.596 45.173C184.596 44.8618 184.768 44.1227 184.921 43.5975L187.176 35.4085H181.194L178.843 43.9476C178.422 45.5037 178.365 45.9122 178.365 46.4179C178.365 49.5107 182.283 49.7052 184.519 49.7052C189.413 49.7052 192.203 49.1411 193.178 45.6399L196.007 35.4085Z" fill="white"/>
<path d="M194.506 49.2967H200.335L201.215 46.1067H207.484C212.148 46.1067 212.778 40.3102 212.778 38.8125C212.778 36.5172 212.014 35.4085 208.975 35.4085H198.233L194.506 49.2967ZM202.858 39.4738H205.515C206.318 39.4738 206.7 39.785 206.7 40.5631C206.7 42.3526 205.553 42.7611 204.884 42.7611H201.96L202.858 39.4738Z" fill="white"/>
<path d="M45.4251 52.156H214V55.8323H45.4251V52.156Z" fill="white"/>
</svg>
