<svg width="167" height="17" viewBox="0 0 167 17" fill="none" xmlns="http://www.w3.org/2000/svg">
<path d="M0 17H6.88691L9.36995 7.71429H9.4168L10.0727 17H14.2423L19.7706 8H19.8174L17.4515 17H24.4556L29 0H19.2084L14.2658 9.14286H14.2189V0H4.31018L0 17Z" fill="#B11E23"/>
<path d="M40.195 8.19048C38.9983 8.39682 37.8174 8.68254 36.605 8.68254C34.9045 8.68254 34.1488 8.34921 34.1488 7.22222C34.1488 6.25397 34.5581 5.47619 34.9675 5.07936C35.802 4.28571 37.0774 4.1746 38.4787 4.1746C39.392 4.1746 40.2265 4.25397 41.2027 4.39683L42.1947 0.650794C40.2895 0.253968 38.3685 0 36.4318 0C34.6526 0 32.6214 0.238095 31.3303 1.60317C29.8817 3.1746 29 7.06349 29 8.71429C29 11.3333 30.5431 12 33.9283 12C34.9833 12 37.2191 11.9048 39.3447 11.4286L40.195 8.19048Z" fill="#B11E23"/>
<path d="M41.032 11.6667H50.2745C51.8806 11.6667 53.896 10.8571 54.7462 8.52381C55.5335 6.4127 55.9429 4.98413 55.9429 3.55556C55.9429 0.936507 54.3211 0.333333 52.6049 0.333333H44.1023L41.032 11.6667ZM47.9285 4.07937H49.503C50.4635 4.07937 50.7941 4.39683 50.7941 5.15873C50.7941 5.42857 50.7154 5.85714 50.4792 6.80952C50.243 7.79365 49.5817 8.65079 48.4796 8.65079H46.6846L47.9285 4.07937Z" fill="#B11E23"/>
<path d="M54.7325 11.6667H60.1174L61.0936 10.0159H65.0615V11.6667H69.911V0.333333H61.4872L54.7325 11.6667ZM65.0615 7.28571H62.5422L65.03 3.20635H65.0615V7.28571Z" fill="#B11E23"/>
<path d="M70.9522 11.6667H75.6916L78.7462 0.333333H73.9281L70.9522 11.6667Z" fill="#B11E23"/>
<path d="M78.0891 11.6667H87.3316C88.9377 11.6667 90.9531 10.8571 91.8033 8.52381C92.5906 6.4127 93 4.98413 93 3.55556C93 0.936507 91.3782 0.333333 89.662 0.333333H81.1594L78.0891 11.6667ZM84.9856 4.07937H86.5601C87.5206 4.07937 87.8512 4.39683 87.8512 5.15873C87.8512 5.42857 87.7725 5.85714 87.5363 6.80952C87.3002 7.79365 86.6388 8.65079 85.5367 8.65079H83.7417L84.9856 4.07937Z" fill="#B11E23"/>
<path d="M107.549 6.1746H102.792L101.979 9.12698C100.852 9.14286 99.9758 9.09524 99.9758 7.68254C99.9758 6.22222 100.617 4.34921 102.057 3.95238C102.886 3.74603 103.872 3.74603 104.748 3.74603C105.859 3.74603 106.986 3.90476 108.065 4.03175L108.973 0.698412C107.033 0.253968 105.045 0 103.043 0C101.838 0 100.492 0.0634922 99.0995 0.507937C95.6102 1.5873 95 7.25397 95 8.49206C95 11.9365 97.8165 12 100.68 12C101.979 12 104.498 11.7936 106.125 11.3968L107.549 6.1746Z" fill="#B11E23"/>
<path d="M114.561 3.50794H116.643C117.3 3.50794 117.675 3.7619 117.675 4.30159C117.675 5.03175 117.206 5.85714 116.111 5.85714H113.967L114.561 3.50794ZM107.63 11.6667H112.402L113.404 7.73016L115.719 11.6667H121.305L118.066 7.01587H118.911C120.93 7.01587 122.495 5.71429 122.495 2.85714C122.495 1.25397 122.041 0.333333 119.913 0.333333H110.681L107.63 11.6667Z" fill="#B11E23"/>
<path d="M130.769 3.74603C131.849 3.74603 132.287 4.25397 132.287 5.07936C132.287 6.36508 131.692 7.5873 131.52 7.90476C131.051 8.77778 130.581 8.98413 129.439 8.98413C128.798 8.98413 128.015 8.71429 128.015 7.53968C128.015 6.96825 128.375 5.68254 128.798 4.87301C129.361 3.79365 130.002 3.74603 130.769 3.74603ZM123.04 8.34921C123.04 11.8889 125.637 12 129.111 12C131.348 12 134.29 11.8571 135.51 9.88889C136.731 7.96825 137.404 5.28571 137.404 3.65079C137.404 0.111111 134.165 0 131.332 0C128.485 0 126.153 0.285714 124.808 2.46032C123.697 4.26984 123.04 6.71429 123.04 8.34921Z" fill="#B11E23"/>
<path d="M152.27 0.333333H147.467L145.386 7.84127C145.166 8.61905 144.807 9.12698 143.93 9.12698C143.336 9.12698 142.929 8.88889 142.929 8.30159C142.929 8.04762 143.07 7.44444 143.195 7.01587L145.041 0.333333H140.144L138.219 7.30159C137.875 8.57143 137.828 8.90476 137.828 9.31746C137.828 11.8413 141.036 12 142.866 12C146.872 12 149.156 11.5397 149.954 8.68254L152.27 0.333333Z" fill="#B11E23"/>
<path d="M151.041 11.6667H155.814L156.533 9.06349H161.666C165.484 9.06349 166 4.33333 166 3.11111C166 1.2381 165.374 0.333333 162.886 0.333333H154.093L151.041 11.6667ZM157.879 3.65079H160.054C160.711 3.65079 161.024 3.90476 161.024 4.53968C161.024 6 160.085 6.33333 159.538 6.33333H157.144L157.879 3.65079Z" fill="#B11E23"/>
<path d="M29 14H167V17H29V14Z" fill="#B11E23"/>
</svg>
